# xmcd CD database file
#
# Track frame offsets:
#	150
#	57987
#	84941
#	117406
#	152583
#	176038
#	212377
#	243849
#	270074
#
# Disc length: 4113 seconds
#
# Revision: 0
# Processed by: cddbd v1.5.1PL0 Copyright (c) Steve Scherf et al.
# Submitted via: CDex 1.51
#
DISCID=66100f09
DTITLE=Eric Clapton - Blues/Disk 2/(Live Blues)
DYEAR=1999
DGENRE=Blues
TTITLE0=Stormy Monday
TTITLE1=Worried Life Blues
TTITLE2=Early in the Morning
TTITLE3=Have You Ever Loved a Woman
TTITLE4=Wonderful Tonight
TTITLE5=Kind Hearted Woman
TTITLE6=Double Trouble
TTITLE7=Driftin' Blues
TTITLE8=Crossroads
EXTD=YEAR: 1999
EXTT0=
EXTT1=
EXTT2=
EXTT3=
EXTT4=
EXTT5=
EXTT6=
EXTT7=
EXTT8=
PLAYORDER=
